<svg width="343" height="219" viewBox="0 0 343 219" fill="none" xmlns="http://www.w3.org/2000/svg">
<g clip-path="url(#clip0_12501_584)">
<rect width="342.538" height="219" rx="6.73846" fill="url(#paint0_linear_12501_584)"/>
<path d="M68.7827 102.762C43.544 102.657 19.2929 112.565 1.34666 130.315C-16.5996 148.064 -26.7765 172.206 -26.954 197.449C-26.9722 209.901 -24.504 222.23 -19.6941 233.715C-14.8842 245.2 -7.8296 255.608 1.05604 264.329C4.81924 268.028 9.88406 270.1 15.1599 270.1C20.4357 270.1 25.5005 268.028 29.2637 264.329C31.1155 262.507 32.5861 260.334 33.5899 257.937C34.5938 255.541 35.1105 252.968 35.1105 250.37C35.1105 247.772 34.5938 245.199 33.5899 242.802C32.5861 240.406 31.1155 238.233 29.2637 236.41C24.086 231.317 19.9737 225.243 17.1667 218.544C14.3596 211.845 12.9142 204.654 12.9142 197.39C12.9142 190.126 14.3596 182.935 17.1667 176.236C19.9737 169.536 24.086 163.463 29.2637 158.369C39.7886 148.013 53.9616 142.208 68.7263 142.208C83.4909 142.208 97.6639 148.013 108.189 158.369C113.367 163.463 117.479 169.536 120.286 176.236C123.093 182.935 124.538 190.126 124.538 197.39C124.538 204.654 123.093 211.845 120.286 218.544C117.479 225.243 113.367 231.317 108.189 236.41C106.337 238.232 104.866 240.405 103.863 242.801C102.859 245.197 102.342 247.769 102.342 250.367C102.342 252.965 102.859 255.537 103.863 257.933C104.866 260.329 106.337 262.502 108.189 264.324C111.952 268.022 117.017 270.094 122.293 270.094C127.568 270.094 132.633 268.022 136.396 264.324C145.304 255.614 152.381 245.211 157.213 233.727C162.044 222.242 164.532 209.908 164.53 197.449C164.353 172.205 154.174 148.061 136.226 130.311C118.277 112.561 94.0234 102.654 68.7827 102.762V102.762Z" fill="url(#paint1_linear_12501_584)"/>
<path d="M317.269 -71.3143C292.844 -71.4261 269.372 -61.8487 252.002 -44.6833C234.633 -27.5178 224.783 -4.16591 224.615 20.2495C224.615 44.8138 234.377 68.372 251.753 85.7416C269.129 103.111 292.696 112.869 317.269 112.869C341.842 112.869 365.409 103.111 382.785 85.7416C400.161 68.372 409.923 44.8138 409.923 20.2495C409.755 -4.16591 399.905 -27.5178 382.535 -44.6833C365.166 -61.8487 341.694 -71.4261 317.269 -71.3143V-71.3143ZM317.269 68.6094C307.724 68.501 298.423 65.5723 290.539 60.192C282.655 54.8118 276.539 47.2203 272.961 38.3732C269.384 29.5261 268.504 19.8188 270.433 10.473C272.362 1.12723 277.014 -7.43928 283.802 -14.1483C290.591 -20.8573 299.213 -25.4089 308.584 -27.2303C317.954 -29.0517 327.655 -28.0615 336.463 -24.3843C345.272 -20.707 352.796 -14.5071 358.088 -6.56487C363.38 1.37735 366.203 10.7069 366.203 20.2495C366.166 26.6368 364.871 32.9543 362.393 38.8414C359.914 44.7285 356.299 50.0698 351.755 54.5605C347.211 59.0511 341.827 62.6031 335.91 65.0136C329.993 67.4242 323.659 68.646 317.269 68.6094Z" fill="url(#paint2_linear_12501_584)"/>
<g opacity="0.6">
<path d="M93.2253 111.969C94.3732 110.821 95.018 109.264 95.018 107.641C95.018 106.017 94.3732 104.461 93.2253 103.313" stroke="white" stroke-width="2.80769" stroke-linecap="round" stroke-linejoin="round"/>
<path d="M97.935 114.841C99.5653 112.795 100.453 110.256 100.453 107.639C100.452 105.023 99.564 102.484 97.9331 100.438" stroke="white" stroke-width="2.80769" stroke-linecap="round" stroke-linejoin="round"/>
<path d="M102.087 117.673C104.271 114.802 105.459 111.296 105.469 107.689C105.48 104.081 104.313 100.569 102.145 97.6848" stroke="white" stroke-width="2.80769" stroke-linecap="round" stroke-linejoin="round"/>
<path d="M106.723 94.7366C109.527 98.609 110.993 103.289 110.9 108.068C110.807 112.848 109.16 117.467 106.208 121.228" stroke="white" stroke-width="2.80769" stroke-linecap="round" stroke-linejoin="round"/>
</g>
<rect x="36.7808" y="89.5935" width="47.5904" height="34.5268" rx="7.01923" fill="url(#paint3_linear_12501_584)" stroke="url(#paint4_linear_12501_584)" stroke-width="0.561538"/>
<mask id="mask0_12501_584" style="mask-type:alpha" maskUnits="userSpaceOnUse" x="37" y="89" width="48" height="35">
<rect x="37.3423" y="90.155" width="46.4673" height="33.4037" rx="6.45769" fill="#DCD59E" stroke="black" stroke-width="0.561538"/>
</mask>
<g mask="url(#mask0_12501_584)">
<path opacity="0.5" fill-rule="evenodd" clip-rule="evenodd" d="M61.6835 90.9868C61.2723 90.1494 60.0785 90.1494 59.6673 90.9868L55.4414 99.5935C55.4414 99.5935 57.535 105.916 55.4414 113.127L59.6479 122.661C60.0419 123.553 61.3089 123.553 61.7029 122.661L65.9094 113.127C65.9094 113.127 63.8158 109.208 65.9094 99.5935L61.6835 90.9868Z" stroke="#BFB985" stroke-width="0.73" stroke-linejoin="bevel"/>
<path opacity="0.5" d="M36.5986 99.5475H55.3083" stroke="#BFB985" stroke-width="0.73" stroke-linejoin="bevel"/>
<path opacity="0.5" d="M65.4648 99.5475H84.7091" stroke="#BFB985" stroke-width="0.73" stroke-linejoin="bevel"/>
<path opacity="0.5" d="M36.5986 113.023H55.3083" stroke="#BFB985" stroke-width="0.73" stroke-linejoin="bevel"/>
<path opacity="0.5" d="M65.4648 113.023H84.7091" stroke="#BFB985" stroke-width="0.73" stroke-linejoin="bevel"/>
</g>
<path fill-rule="evenodd" clip-rule="evenodd" d="M21.8934 10.6693C23.7505 10.6693 25.256 12.1748 25.256 14.0319V19.8159C26.1083 19.4806 26.995 19.2274 27.9046 19.0622C30.6072 18.5713 33.3943 18.8787 35.925 19.9466C38.4557 21.0146 40.6203 22.7969 42.1542 25.0755C43.688 27.3542 44.5246 30.0304 44.5616 32.777C44.5246 35.5236 43.688 38.1998 42.1542 40.4785C40.6203 42.7571 38.4557 44.5394 35.925 45.6074C33.3943 46.6753 30.6072 46.9827 27.9046 46.4918C25.202 46.0009 22.701 44.7331 20.7075 42.8434C20.3924 42.5466 20.1395 42.1901 19.9635 41.7946C19.7875 41.3991 19.692 40.9725 19.6826 40.5397C19.6731 40.1069 19.7499 39.6765 19.9084 39.2737C20.067 38.8709 20.3041 38.5036 20.606 38.1933C21.22 37.5637 22.0568 37.2003 22.9361 37.1817C23.8153 37.1631 24.6667 37.4906 25.3069 38.0937C26.7269 39.4337 28.6129 40.1679 30.5652 40.1407C32.5174 40.1135 34.3823 39.327 35.7644 37.948C36.4445 37.2695 36.9841 36.4635 37.3522 35.5762C37.7204 34.6889 37.9099 33.7377 37.9099 32.777C37.9099 31.8164 37.7204 30.8651 37.3522 29.9778C36.9841 29.0905 36.4445 28.2845 35.7644 27.6061C34.3823 26.227 32.5174 25.4405 30.5652 25.4133C28.6129 25.3861 26.7269 26.1203 25.3069 27.4603C25.2901 27.4762 25.2731 27.4918 25.256 27.5072V30.3647C25.256 32.2218 23.7505 33.7273 21.8934 33.7273C20.0363 33.7273 18.5308 32.2218 18.5308 30.3647V14.0319C18.5308 12.1748 20.0363 10.6693 21.8934 10.6693ZM63.1015 22.8898C65.7453 20.2761 69.3179 18.8178 73.0356 18.8348C76.7532 18.8178 80.3258 20.2761 82.9696 22.8898C85.6134 25.5035 87.1125 29.0591 87.1382 32.7767C87.1382 36.5169 85.6523 40.104 83.0076 42.7487C80.3628 45.3935 76.7758 46.8793 73.0356 46.8793C69.2953 46.8793 65.7082 45.3935 63.0635 42.7487C60.4187 40.104 58.933 36.5169 58.933 32.7767C58.9586 29.0591 60.4577 25.5035 63.1015 22.8898ZM68.9671 38.8585C70.1671 39.6777 71.5827 40.1236 73.0356 40.1401C74.0081 40.1457 74.9722 39.9596 75.8728 39.5926C76.7735 39.2256 77.593 38.6847 78.2846 38.001C78.9762 37.3172 79.5264 36.5039 79.9037 35.6075C80.281 34.7111 80.4781 33.7492 80.4836 32.7767C80.4837 31.3237 80.0539 29.9031 79.2485 28.6938C78.443 27.4845 77.2979 26.5405 75.9571 25.9806C74.6163 25.4207 73.1398 25.2699 71.7136 25.5472C70.2873 25.8246 68.9749 26.5176 67.9417 27.5391C66.9084 28.5607 66.2003 29.865 65.9067 31.2881C65.6131 32.7111 65.7471 34.1892 66.2916 35.5362C66.8362 36.8833 67.767 38.0392 68.9671 38.8585ZM95.6978 23.4254C98.6888 20.4679 102.73 18.8171 106.937 18.8348C111.143 18.8171 115.185 20.4679 118.176 23.4254C121.167 26.3829 122.863 30.4057 122.892 34.6119C122.892 36.6878 122.478 38.7427 121.673 40.6561C120.867 42.5695 119.688 44.3027 118.204 45.7539C117.577 46.3701 116.733 46.7154 115.853 46.7154C114.974 46.7154 114.13 46.3701 113.503 45.7539C113.194 45.4502 112.949 45.0882 112.782 44.6888C112.615 44.2895 112.528 43.8609 112.528 43.4279C112.528 42.9949 112.615 42.5663 112.782 42.167C112.949 41.7676 113.194 41.4056 113.503 41.1019C114.366 40.2532 115.051 39.2411 115.519 38.1248C115.987 37.0084 116.228 35.8101 116.228 34.5997C116.228 33.3892 115.987 32.1909 115.519 31.0746C115.051 29.9582 114.366 28.9462 113.503 28.0974C111.749 26.3717 109.387 25.4046 106.926 25.4046C104.465 25.4046 102.103 26.3717 100.349 28.0974C99.4859 28.9462 98.8005 29.9582 98.3326 31.0746C97.8647 32.1909 97.6237 33.3892 97.6237 34.5997C97.6237 35.8101 97.8647 37.0084 98.3326 38.1248C98.8005 39.2411 99.4859 40.2532 100.349 41.1019C100.658 41.4056 100.903 41.7676 101.07 42.167C101.237 42.5663 101.323 42.9949 101.323 43.4279C101.323 43.8609 101.237 44.2895 101.07 44.6888C100.903 45.0882 100.658 45.4502 100.349 45.7539C99.7218 46.3701 98.8777 46.7154 97.9985 46.7154C97.1193 46.7154 96.2752 46.3701 95.6481 45.7539C94.1676 44.3008 92.9923 42.5668 92.1909 40.6536C91.3894 38.7403 90.9781 36.6862 90.981 34.6119C91.0106 30.4057 92.7068 26.3829 95.6978 23.4254ZM150.691 27.3607C150.993 27.0504 151.23 26.6832 151.389 26.2803C151.547 25.8775 151.624 25.4471 151.614 25.0143C151.605 24.5815 151.509 24.155 151.333 23.7594C151.157 23.3639 150.905 23.0074 150.589 22.7106C148.596 20.8209 146.095 19.5531 143.392 19.0622C140.69 18.5713 137.903 18.8787 135.372 19.9466C132.841 21.0146 130.677 22.7969 129.143 25.0755C127.609 27.3542 126.772 30.0304 126.735 32.777C126.772 35.5236 127.609 38.1998 129.143 40.4785C130.677 42.7571 132.841 44.5394 135.372 45.6074C137.903 46.6753 140.69 46.9827 143.392 46.4918C146.095 46.0009 148.596 44.7331 150.589 42.8434C150.905 42.5466 151.157 42.1901 151.333 41.7946C151.509 41.3991 151.605 40.9725 151.614 40.5397C151.624 40.1069 151.547 39.6765 151.389 39.2737C151.23 38.8709 150.993 38.5036 150.691 38.1933C150.077 37.5636 149.24 37.2003 148.361 37.1817C147.482 37.1631 146.63 37.4906 145.99 38.0937C144.57 39.4337 142.684 40.1679 140.732 40.1407C138.78 40.1135 136.915 39.327 135.533 37.948C134.852 37.2695 134.313 36.4635 133.945 35.5762C133.577 34.6889 133.387 33.7377 133.387 32.777C133.387 31.8164 133.577 30.8651 133.945 29.9778C134.313 29.0905 134.852 28.2845 135.533 27.6061C136.915 26.227 138.78 25.4405 140.732 25.4133C142.684 25.3861 144.57 26.1203 145.99 27.4603C146.63 28.0635 147.482 28.391 148.361 28.3722C149.24 28.3534 150.077 27.9898 150.691 27.3597V27.3607ZM143.851 32.6898C143.861 34.5051 142.381 35.9849 140.545 35.995C138.709 36.0052 137.212 34.5419 137.202 32.7266C137.192 30.9114 138.672 29.4316 140.508 29.4214C142.344 29.4113 143.841 30.8746 143.851 32.6898ZM51.7652 35.0352C53.6012 35.025 55.0815 33.5453 55.0714 31.73C55.0614 29.9148 53.5648 28.4515 51.7288 28.4616C49.8928 28.4718 48.4126 29.9516 48.4226 31.7668C48.4327 33.5821 49.9292 35.0454 51.7652 35.0352Z" fill="white"/>
<path d="M166.536 28.8973H160.941V42.6261H163.388V37.7045H166.536C169.584 37.7045 170.888 35.5326 170.888 33.3009C170.888 31.1091 169.584 28.8973 166.536 28.8973ZM166.416 35.5126H163.388V31.0692H166.476C167.88 31.0692 168.441 32.2249 168.441 33.3009C168.441 34.4167 167.86 35.5126 166.416 35.5126Z" fill="white"/>
<path d="M181.591 37.8838C181.591 34.9746 179.485 33.1216 176.798 33.1216C174.131 33.1216 171.885 34.9946 171.885 37.9635C171.885 40.8727 174.011 42.8254 176.818 42.8254C178.523 42.8254 180.167 42.1081 181.029 40.7531L179.485 39.5775C178.924 40.3347 177.961 40.7332 176.939 40.7332C175.555 40.7332 174.552 40.0756 174.292 38.7805H181.531C181.571 38.4417 181.591 38.1428 181.591 37.8838ZM174.292 37.1665C174.572 35.7518 175.575 35.154 176.838 35.154C178.142 35.154 179.124 35.8912 179.265 37.1665H174.292Z" fill="white"/>
<path d="M185.031 31.4478C185.873 31.4478 186.555 30.8301 186.555 30.0331C186.555 29.2161 185.873 28.6183 185.031 28.6183C184.209 28.6183 183.527 29.2161 183.527 30.0331C183.527 30.8301 184.209 31.4478 185.031 31.4478ZM181.181 47.1692H182.404C185.031 47.1692 186.194 45.5552 186.194 42.9649V33.3208H183.868V42.9649C183.888 44.0209 183.547 45.0172 182.324 45.0172H181.181V47.1692Z" fill="white"/>
<path d="M193.347 42.8254C196.014 42.8254 198.34 40.8926 198.34 37.9436C198.34 34.9946 196.014 33.1216 193.347 33.1216C190.68 33.1216 188.374 34.9946 188.374 37.9436C188.374 40.8926 190.68 42.8254 193.347 42.8254ZM193.347 40.6734C191.903 40.6734 190.72 39.5775 190.72 37.9436C190.72 36.3495 191.903 35.2735 193.347 35.2735C194.791 35.2735 195.994 36.3495 195.994 37.9436C195.994 39.5775 194.791 40.6734 193.347 40.6734Z" fill="white"/>
<path d="M205.506 33.3208H203.521V29.8936H201.195V33.3208H199.511V35.1739H201.195V42.6261H203.521V35.1739H205.506V33.3208Z" fill="white"/>
<path d="M214.268 33.3208V34.5562C213.626 33.5798 212.323 33.1216 211.14 33.1216C208.673 33.1216 206.547 34.9747 206.547 37.9635C206.547 40.9324 208.693 42.8254 211.16 42.8254C212.303 42.8254 213.626 42.3671 214.268 41.3708V42.6261H216.594V33.3208H214.268ZM211.521 40.6535C210.077 40.6535 208.894 39.4978 208.894 37.9436C208.894 36.3894 210.077 35.2735 211.521 35.2735C212.864 35.2735 214.228 36.3097 214.228 37.9436C214.228 39.5775 212.944 40.6535 211.521 40.6535Z" fill="white"/>
<path d="M306.731 182.767C305.165 182.208 303.509 181.928 301.843 181.939C296.453 181.939 292.646 184.597 292.619 188.412C292.585 191.215 295.324 192.795 297.396 193.731C299.522 194.694 300.232 195.301 300.226 196.162C300.212 197.471 298.528 198.065 296.961 198.065C294.809 198.065 293.633 197.771 291.824 197.036L291.154 196.729L290.389 201.122C291.699 201.656 294.061 202.114 296.5 202.154C302.23 202.154 305.976 199.512 306.02 195.453C306.067 193.214 304.585 191.522 301.465 190.124C299.569 189.217 298.393 188.61 298.393 187.69C298.393 186.875 299.4 186.005 301.506 186.005C302.907 185.972 304.3 186.229 305.592 186.76L306.097 186.981L306.862 182.737L306.731 182.767V182.767ZM320.718 182.295H316.507C315.196 182.295 314.209 182.648 313.637 183.921L305.538 201.88H311.268L312.414 198.935L319.407 198.942C319.572 199.631 320.078 201.88 320.078 201.88H325.131L320.718 182.295V182.295ZM284.868 182.13H290.328L286.913 201.725H281.459L284.868 182.123V182.13V182.13ZM271.005 192.93L271.571 195.651L276.907 182.295H282.692L274.098 201.854H268.327L263.611 185.293C263.535 185.02 263.355 184.785 263.109 184.636C261.409 183.777 259.608 183.124 257.746 182.694L257.82 182.282H266.609C267.802 182.328 268.762 182.694 269.082 183.941L271.002 192.94V192.93H271.005ZM313.98 194.929L316.156 189.448C316.129 189.507 316.604 188.317 316.881 187.581L317.255 189.273L318.518 194.925H313.977V194.929H313.98Z" fill="white"/>
<path d="M23.8452 201.431L21.6889 197.684H20.5164V201.431H18.98V192.064H22.2145C22.9332 192.064 23.5397 192.19 24.0339 192.442C24.537 192.693 24.9099 193.03 25.1524 193.452C25.404 193.875 25.5298 194.346 25.5298 194.868C25.5298 195.478 25.3501 196.036 24.9907 196.539C24.6403 197.033 24.0967 197.37 23.36 197.549L25.678 201.431H23.8452ZM20.5164 196.458H22.2145C22.7895 196.458 23.2207 196.314 23.5083 196.027C23.8047 195.739 23.953 195.353 23.953 194.868C23.953 194.382 23.8092 194.005 23.5217 193.735C23.2342 193.457 22.7985 193.318 22.2145 193.318H20.5164V196.458ZM33.142 199.517H29.2203L28.5464 201.431H26.9427L30.2984 192.051H32.0774L35.4331 201.431H33.8159L33.142 199.517ZM32.7108 198.264L31.1879 193.911L29.6515 198.264H32.7108ZM42.4043 192.064V193.318H38.4286V196.08H41.5283V197.334H38.4286V201.431H36.8922V192.064H42.4043ZM49.4749 199.517H45.5531L44.8793 201.431H43.2755L46.6313 192.051H48.4102L51.766 201.431H50.1488L49.4749 199.517ZM49.0437 198.264L47.5208 193.911L45.9844 198.264H49.0437ZM54.7614 193.304V196.053H57.9959V197.307H54.7614V200.177H58.4002V201.431H53.2251V192.051H58.4002V193.304H54.7614ZM61.8289 200.191H64.996V201.431H60.2926V192.064H61.8289V200.191ZM79.6468 192.064V201.431H78.1104V195.016L75.2533 201.431H74.1886L71.3181 195.016V201.431H69.7817V192.064H71.4394L74.7277 199.409L78.0026 192.064H79.6468ZM87.313 199.517H83.3912L82.7173 201.431H81.1136L84.4693 192.051H86.2483L89.604 201.431H87.9868L87.313 199.517ZM86.8817 198.264L85.3588 193.911L83.8224 198.264H86.8817ZM95.9283 201.431L93.772 197.684H92.5995V201.431H91.0631V192.064H94.2976C95.0164 192.064 95.6228 192.19 96.117 192.442C96.6201 192.693 96.993 193.03 97.2356 193.452C97.4871 193.875 97.6129 194.346 97.6129 194.868C97.6129 195.478 97.4332 196.036 97.0738 196.539C96.7234 197.033 96.1799 197.37 95.4431 197.549L97.7612 201.431H95.9283ZM92.5995 196.458H94.2976C94.8726 196.458 95.3039 196.314 95.5914 196.027C95.8879 195.739 96.0361 195.353 96.0361 194.868C96.0361 194.382 95.8924 194.005 95.6048 193.735C95.3173 193.457 94.8816 193.318 94.2976 193.318H92.5995V196.458ZM105.629 192.064V193.318H103.136V201.431H101.6V193.318H99.0932V192.064H105.629ZM108.722 192.064V201.431H107.185V192.064H108.722ZM118.434 201.431H116.898L112.275 194.436V201.431H110.739V192.051H112.275L116.898 199.032V192.051H118.434V201.431ZM123.538 201.525C122.909 201.525 122.343 201.417 121.84 201.202C121.337 200.977 120.941 200.663 120.654 200.258C120.366 199.854 120.223 199.382 120.223 198.843H121.867C121.903 199.248 122.06 199.58 122.339 199.841C122.626 200.101 123.026 200.231 123.538 200.231C124.068 200.231 124.481 200.106 124.778 199.854C125.074 199.593 125.223 199.261 125.223 198.857C125.223 198.542 125.128 198.286 124.94 198.089C124.76 197.891 124.531 197.738 124.252 197.63C123.983 197.522 123.605 197.406 123.12 197.28C122.509 197.118 122.011 196.956 121.624 196.795C121.247 196.624 120.923 196.363 120.654 196.013C120.384 195.663 120.25 195.195 120.25 194.611C120.25 194.072 120.384 193.601 120.654 193.196C120.923 192.792 121.301 192.482 121.786 192.266C122.271 192.051 122.833 191.943 123.471 191.943C124.378 191.943 125.119 192.172 125.694 192.63C126.278 193.08 126.602 193.7 126.665 194.49H124.967C124.94 194.149 124.778 193.857 124.481 193.614C124.185 193.372 123.794 193.25 123.309 193.25C122.869 193.25 122.509 193.363 122.231 193.587C121.952 193.812 121.813 194.135 121.813 194.558C121.813 194.845 121.898 195.083 122.069 195.272C122.249 195.452 122.473 195.595 122.743 195.703C123.012 195.811 123.381 195.928 123.848 196.053C124.468 196.224 124.971 196.395 125.357 196.566C125.753 196.736 126.085 197.001 126.355 197.361C126.633 197.711 126.772 198.183 126.772 198.776C126.772 199.252 126.642 199.701 126.382 200.124C126.13 200.546 125.757 200.887 125.263 201.148C124.778 201.399 124.203 201.525 123.538 201.525Z" fill="white"/>
</g>
<defs>
<linearGradient id="paint0_linear_12501_584" x1="17.4077" y1="55.5923" x2="344.293" y2="139.419" gradientUnits="userSpaceOnUse">
<stop stop-color="#00A5F0"/>
<stop offset="1" stop-color="#00D7D7"/>
</linearGradient>
<linearGradient id="paint1_linear_12501_584" x1="138.709" y1="280.304" x2="17.71" y2="155.277" gradientUnits="userSpaceOnUse">
<stop stop-color="white"/>
<stop offset="1" stop-color="white" stop-opacity="0"/>
</linearGradient>
<linearGradient id="paint2_linear_12501_584" x1="384.934" y1="124.1" x2="252.294" y2="3.59756" gradientUnits="userSpaceOnUse">
<stop stop-color="white"/>
<stop offset="1" stop-color="white" stop-opacity="0"/>
</linearGradient>
<linearGradient id="paint3_linear_12501_584" x1="60.5759" y1="89.8743" x2="76.7748" y2="136.746" gradientUnits="userSpaceOnUse">
<stop stop-color="#DCD59E"/>
<stop offset="1" stop-color="#CBBB82"/>
</linearGradient>
<linearGradient id="paint4_linear_12501_584" x1="40.1968" y1="91.8077" x2="60.5759" y2="123.84" gradientUnits="userSpaceOnUse">
<stop stop-color="#FBF3C0"/>
<stop offset="1" stop-color="#CCBC84"/>
</linearGradient>
<clipPath id="clip0_12501_584">
<rect width="342.538" height="219" rx="6.73846" fill="white"/>
</clipPath>
</defs>
</svg>
