<svg width="511" height="509" viewBox="0 0 511 509" fill="none" xmlns="http://www.w3.org/2000/svg">
<path d="M255.468 0.00266829C188.123 -0.305618 123.405 26.1111 75.5124 73.4576C27.6199 120.804 0.463838 185.214 0 252.558C0 320.312 26.9148 385.291 74.8243 433.201C122.734 481.11 187.713 508.025 255.468 508.025C323.222 508.025 388.2 481.11 436.11 433.201C484.019 385.291 510.935 320.312 510.935 252.558C510.471 185.214 483.314 120.804 435.422 73.4576C387.529 26.1111 322.812 -0.305618 255.468 0.00266829ZM255.468 385.946C229.148 385.647 203.505 377.569 181.767 362.729C160.029 347.889 143.166 326.95 133.301 302.547C123.437 278.145 121.011 251.37 126.329 225.592C131.648 199.814 144.474 176.185 163.192 157.68C181.91 139.175 205.683 126.621 231.52 121.597C257.357 116.573 284.102 119.304 308.391 129.447C332.679 139.59 353.423 156.691 368.014 178.597C382.605 200.504 390.39 226.237 390.388 252.558C390.288 270.175 386.718 287.601 379.883 303.839C373.048 320.077 363.082 334.809 350.554 347.196C338.025 359.582 323.18 369.379 306.865 376.028C290.55 382.677 273.085 386.047 255.468 385.946Z" fill="url(#paint0_linear_4306_242)"/>
<path fill-rule="evenodd" clip-rule="evenodd" d="M335 201.229C335 202.46 334.002 203.458 332.771 203.458H328.937C329.16 204.022 329.328 204.61 329.437 205.213C329.762 207.004 329.559 208.852 328.851 210.529C328.143 212.206 326.962 213.641 325.451 214.658C323.941 215.674 322.167 216.229 320.347 216.253C318.526 216.229 316.753 215.674 315.242 214.658C313.732 213.641 312.551 212.206 311.843 210.529C311.135 208.852 310.931 207.004 311.257 205.213C311.582 203.422 312.422 201.764 313.675 200.443C313.872 200.234 314.108 200.066 314.37 199.95C314.632 199.833 314.915 199.77 315.202 199.763C315.489 199.757 315.774 199.808 316.041 199.913C316.308 200.018 316.551 200.175 316.757 200.375C317.174 200.782 317.415 201.337 317.427 201.92C317.44 202.503 317.223 203.067 316.823 203.491C315.935 204.432 315.448 205.682 315.466 206.976C315.484 208.27 316.006 209.506 316.92 210.422C317.369 210.873 317.903 211.231 318.492 211.475C319.08 211.719 319.71 211.844 320.347 211.844C320.984 211.844 321.614 211.719 322.202 211.475C322.79 211.231 323.325 210.873 323.774 210.422C324.688 209.506 325.21 208.27 325.228 206.976C325.246 205.682 324.759 204.432 323.871 203.491C323.86 203.48 323.85 203.469 323.84 203.458H321.946C320.715 203.458 319.717 202.46 319.717 201.229C319.717 199.998 320.715 199 321.946 199H332.771C334.002 199 335 199.998 335 201.229ZM326.9 228.542C328.632 230.294 329.599 232.662 329.588 235.126C329.599 237.59 328.632 239.958 326.9 241.71C325.168 243.462 322.811 244.456 320.347 244.473C317.868 244.473 315.49 243.488 313.737 241.735C311.985 239.982 311 237.605 311 235.126C311 232.647 311.985 230.269 313.737 228.516C315.49 226.763 317.868 225.779 320.347 225.779C322.811 225.796 325.168 226.789 326.9 228.542ZM316.316 232.429C315.773 233.225 315.477 234.163 315.466 235.126C315.463 235.77 315.586 236.409 315.829 237.006C316.073 237.603 316.431 238.146 316.884 238.605C317.337 239.063 317.877 239.428 318.471 239.678C319.065 239.928 319.702 240.059 320.347 240.062C321.31 240.062 322.252 239.778 323.053 239.244C323.855 238.71 324.48 237.951 324.851 237.062C325.223 236.174 325.322 235.195 325.139 234.25C324.955 233.304 324.495 232.434 323.818 231.75C323.141 231.065 322.277 230.595 321.334 230.401C320.39 230.206 319.411 230.295 318.518 230.656C317.625 231.017 316.859 231.634 316.316 232.429ZM326.545 250.146C328.505 252.129 329.599 254.808 329.588 257.596C329.599 260.383 328.505 263.062 326.545 265.045C324.585 267.027 321.918 268.151 319.131 268.171C317.755 268.171 316.393 267.896 315.124 267.363C313.856 266.829 312.708 266.047 311.746 265.063C311.337 264.648 311.108 264.088 311.108 263.505C311.108 262.923 311.337 262.363 311.746 261.948C311.947 261.743 312.187 261.581 312.452 261.47C312.716 261.359 313 261.302 313.287 261.302C313.574 261.302 313.858 261.359 314.123 261.47C314.388 261.581 314.628 261.743 314.829 261.948C315.392 262.52 316.062 262.974 316.802 263.284C317.542 263.594 318.336 263.754 319.139 263.754C319.941 263.754 320.735 263.594 321.475 263.284C322.215 262.974 322.886 262.52 323.448 261.948C324.592 260.785 325.233 259.219 325.233 257.588C325.233 255.957 324.592 254.392 323.448 253.229C322.886 252.657 322.215 252.203 321.475 251.893C320.735 251.583 319.941 251.423 319.139 251.423C318.336 251.423 317.542 251.583 316.802 251.893C316.062 252.203 315.392 252.657 314.829 253.229C314.628 253.434 314.388 253.596 314.123 253.707C313.858 253.818 313.574 253.875 313.287 253.875C313 253.875 312.716 253.818 312.452 253.707C312.187 253.596 311.947 253.434 311.746 253.229C311.337 252.814 311.108 252.254 311.108 251.671C311.108 251.089 311.337 250.529 311.746 250.113C312.709 249.132 313.858 248.353 315.126 247.822C316.394 247.291 317.756 247.018 319.131 247.02C321.918 247.04 324.585 248.164 326.545 250.146ZM323.937 286.596C324.142 286.796 324.386 286.954 324.653 287.059C324.92 287.164 325.205 287.215 325.492 287.208C325.779 287.202 326.061 287.139 326.324 287.022C326.586 286.905 326.822 286.738 327.019 286.529C328.271 285.208 329.112 283.55 329.437 281.759C329.762 279.967 329.559 278.12 328.851 276.443C328.143 274.766 326.962 273.331 325.451 272.314C323.941 271.298 322.167 270.743 320.347 270.718C318.526 270.743 316.753 271.298 315.242 272.314C313.732 273.331 312.551 274.766 311.843 276.443C311.135 278.12 310.931 279.967 311.257 281.759C311.582 283.55 312.422 285.208 313.675 286.529C313.871 286.738 314.108 286.905 314.37 287.022C314.632 287.139 314.915 287.202 315.202 287.208C315.489 287.215 315.774 287.164 316.041 287.059C316.308 286.954 316.551 286.796 316.757 286.596C317.174 286.189 317.415 285.635 317.427 285.052C317.44 284.469 317.223 283.905 316.823 283.481C315.935 282.539 315.448 281.289 315.466 279.995C315.484 278.701 316.005 277.465 316.919 276.549C317.369 276.099 317.903 275.741 318.491 275.497C319.08 275.253 319.71 275.127 320.347 275.127C320.983 275.127 321.614 275.253 322.202 275.497C322.79 275.741 323.324 276.099 323.774 276.549C324.688 277.465 325.209 278.701 325.227 279.995C325.245 281.289 324.759 282.539 323.871 283.481C323.471 283.905 323.254 284.469 323.266 285.052C323.279 285.635 323.52 286.189 323.937 286.596H323.937ZM320.405 282.062C319.202 282.069 318.221 281.088 318.214 279.871C318.207 278.654 319.177 277.662 320.38 277.655C321.583 277.649 322.564 278.63 322.571 279.847C322.578 281.064 321.608 282.055 320.405 282.062ZM318.85 221.028C318.857 222.245 319.838 223.226 321.041 223.219C322.244 223.213 323.214 222.221 323.207 221.004C323.201 219.787 322.22 218.806 321.017 218.812C319.813 218.819 318.844 219.811 318.85 221.028Z" fill="#C4F3F7"/>
<defs>
<linearGradient id="paint0_linear_4306_242" x1="585.5" y1="508" x2="53.5155" y2="262.824" gradientUnits="userSpaceOnUse">
<stop stop-color="#00A5F0"/>
<stop offset="1" stop-color="#00D7D7" stop-opacity="0"/>
</linearGradient>
</defs>
</svg>
