<svg width="139" height="38" viewBox="0 0 139 38" fill="none" xmlns="http://www.w3.org/2000/svg">
<path fill-rule="evenodd" clip-rule="evenodd" d="M3.5 0C5.433 0 7 1.567 7 3.5V9.5204C7.88711 9.17137 8.81014 8.90779 9.75694 8.73582C12.5699 8.2249 15.4708 8.54479 18.1049 9.65637C20.739 10.768 22.9921 12.623 24.5886 14.9948C26.1851 17.3665 27.0558 20.1521 27.0944 23.0109C27.0558 25.8696 26.1851 28.6552 24.5886 31.0269C22.9921 33.3987 20.739 35.2538 18.1049 36.3653C15.4708 37.4769 12.5699 37.7968 9.75694 37.2859C6.94394 36.775 4.3408 35.4554 2.26586 33.4885C1.93784 33.1796 1.67459 32.8085 1.49143 32.3968C1.30827 31.9851 1.20887 31.5411 1.19903 31.0906C1.1892 30.6401 1.26911 30.1922 1.43412 29.7729C1.59913 29.3536 1.84595 28.9714 2.16017 28.6484C2.79923 27.993 3.67021 27.6149 4.58541 27.5955C5.50062 27.5761 6.3868 27.917 7.05306 28.5447C8.53107 29.9394 10.4942 30.7037 12.5262 30.6754C14.5582 30.647 16.4992 29.8284 17.9378 28.393C18.6457 27.6868 19.2073 26.8479 19.5905 25.9244C19.9737 25.0008 20.1709 24.0108 20.1709 23.0109C20.1709 22.011 19.9737 21.0209 19.5905 20.0973C19.2073 19.1738 18.6457 18.3349 17.9378 17.6287C16.4992 16.1933 14.5582 15.3747 12.5262 15.3464C10.4942 15.318 8.53107 16.0823 7.05306 17.477C7.03553 17.4935 7.01784 17.5098 7 17.526V20.5C7 22.433 5.433 24 3.5 24C1.567 24 0 22.433 0 20.5V3.5C0 1.567 1.567 0 3.5 0ZM46.3914 12.7198C49.1432 9.99932 52.8618 8.48146 56.7313 8.49918C60.6008 8.48146 64.3193 9.99932 67.0711 12.7198C69.8229 15.4402 71.3833 19.1411 71.41 23.0105C71.41 26.9035 69.8634 30.6371 67.1106 33.3899C64.3579 36.1427 60.6243 37.6892 56.7313 37.6892C52.8383 37.6892 49.1047 36.1427 46.3519 33.3899C43.5991 30.6371 42.0526 26.9035 42.0526 23.0105C42.0793 19.1411 43.6396 15.4402 46.3914 12.7198ZM52.4966 29.3407C53.7456 30.1934 55.219 30.6576 56.7313 30.6747C57.7436 30.6805 58.747 30.4869 59.6845 30.1049C60.6219 29.7228 61.4749 29.1599 62.1948 28.4482C62.9146 27.7365 63.4873 26.89 63.88 25.957C64.2727 25.024 64.4778 24.0228 64.4836 23.0105C64.4837 21.4982 64.0364 20.0196 63.198 18.7609C62.3596 17.5022 61.1677 16.5196 59.7721 15.9368C58.3766 15.354 56.8398 15.1971 55.3553 15.4858C53.8707 15.7744 52.5048 16.4958 51.4293 17.559C50.3538 18.6223 49.6169 19.9799 49.3113 21.4611C49.0057 22.9422 49.1451 24.4807 49.7119 25.8828C50.2787 27.2849 51.2475 28.488 52.4966 29.3407ZM80.3194 13.2772C83.4326 10.1989 87.6393 8.48067 92.0174 8.49917C96.3954 8.48067 100.602 10.1989 103.715 13.2772C106.829 16.3556 108.594 20.5427 108.625 24.9207C108.625 27.0814 108.193 29.2203 107.355 31.2118C106.517 33.2033 105.29 35.0073 103.745 36.5178C103.092 37.1592 102.213 37.5186 101.298 37.5186C100.383 37.5186 99.5045 37.1592 98.8518 36.5178C98.5306 36.2017 98.2755 35.8249 98.1014 35.4093C97.9272 34.9936 97.8376 34.5475 97.8376 34.0968C97.8376 33.6462 97.9272 33.2 98.1014 32.7844C98.2755 32.3687 98.5306 31.9919 98.8518 31.6758C99.7501 30.7924 100.463 29.739 100.95 28.5771C101.437 27.4151 101.688 26.1679 101.688 24.908C101.688 23.6481 101.437 22.4008 100.95 21.2389C100.463 20.0769 99.7501 19.0235 98.8518 18.1401C97.026 16.3439 94.5674 15.3373 92.0061 15.3373C89.4449 15.3373 86.9863 16.3439 85.1605 18.1401C84.2622 19.0235 83.5488 20.0769 83.0618 21.2389C82.5748 22.4008 82.324 23.6481 82.324 24.908C82.324 26.1679 82.5748 27.4151 83.0618 28.5771C83.5488 29.739 84.2622 30.7924 85.1605 31.6758C85.4817 31.9919 85.7368 32.3687 85.9109 32.7844C86.085 33.2 86.1747 33.6462 86.1747 34.0968C86.1747 34.5475 86.085 34.9936 85.9109 35.4093C85.7368 35.8249 85.4817 36.2017 85.1605 36.5178C84.5077 37.1592 83.6292 37.5186 82.714 37.5186C81.7989 37.5186 80.9204 37.1592 80.2676 36.5178C78.7267 35.0054 77.5033 33.2006 76.6692 31.2092C75.835 29.2177 75.4069 27.0798 75.4099 24.9207C75.4407 20.5427 77.2062 16.3556 80.3194 13.2772ZM137.559 17.3733C137.873 17.0503 138.12 16.6681 138.285 16.2488C138.45 15.8295 138.53 15.3816 138.52 14.9311C138.51 14.4806 138.411 14.0366 138.228 13.6249C138.045 13.2132 137.781 12.8421 137.453 12.5332C135.378 10.5663 132.775 9.24675 129.962 8.73582C127.149 8.2249 124.248 8.54479 121.614 9.65637C118.98 10.768 116.727 12.623 115.131 14.9948C113.534 17.3665 112.663 20.1521 112.625 23.0109C112.663 25.8696 113.534 28.6552 115.131 31.0269C116.727 33.3987 118.98 35.2538 121.614 36.3653C124.248 37.4769 127.149 37.7968 129.962 37.2859C132.775 36.775 135.378 35.4554 137.453 33.4885C137.781 33.1796 138.045 32.8085 138.228 32.3968C138.411 31.9851 138.51 31.5411 138.52 31.0906C138.53 30.6401 138.45 30.1922 138.285 29.7729C138.12 29.3536 137.873 28.9714 137.559 28.6484C136.92 27.993 136.049 27.6149 135.134 27.5955C134.219 27.5761 133.332 27.917 132.666 28.5447C131.188 29.9394 129.225 30.7037 127.193 30.6754C125.161 30.647 123.22 29.8284 121.781 28.393C121.074 27.6868 120.512 26.8479 120.129 25.9244C119.746 25.0008 119.548 24.0108 119.548 23.0109C119.548 22.011 119.746 21.0209 120.129 20.0973C120.512 19.1738 121.074 18.3349 121.781 17.6287C123.22 16.1933 125.161 15.3747 127.193 15.3464C129.225 15.318 131.188 16.0823 132.666 17.477C133.332 18.1049 134.219 18.4457 135.134 18.4261C136.049 18.4066 136.92 18.0281 137.559 17.3723V17.3733ZM130.439 22.9201C130.45 24.8095 128.909 26.3498 126.998 26.3603C125.087 26.3709 123.529 24.8478 123.519 22.9584C123.508 21.069 125.049 19.5288 126.96 19.5182C128.871 19.5076 130.429 21.0307 130.439 22.9201ZM34.5924 25.3613C36.5034 25.3507 38.0441 23.8105 38.0337 21.9211C38.0232 20.0317 36.4656 18.5086 34.5546 18.5192C32.6435 18.5298 31.1028 20.07 31.1133 21.9594C31.1237 23.8488 32.6814 25.3719 34.5924 25.3613Z" fill="url(#paint0_linear_12500_300)"/>
<defs>
<linearGradient id="paint0_linear_12500_300" x1="7.03959" y1="9.56726" x2="110.394" y2="71.8477" gradientUnits="userSpaceOnUse">
<stop stop-color="#00A5F0"/>
<stop offset="1" stop-color="#00D7D7"/>
</linearGradient>
</defs>
</svg>
