<svg width="140" height="39" viewBox="0 0 140 39" fill="none" xmlns="http://www.w3.org/2000/svg">
<path fill-rule="evenodd" clip-rule="evenodd" d="M4 0.5C5.933 0.5 7.5 2.067 7.5 4V10.0204C8.38711 9.67137 9.31014 9.40779 10.2569 9.23582C13.0699 8.7249 15.9708 9.04479 18.6049 10.1564C21.239 11.268 23.4921 13.123 25.0886 15.4948C26.6851 17.8665 27.5558 20.6521 27.5944 23.5109C27.5558 26.3696 26.6851 29.1552 25.0886 31.5269C23.4921 33.8987 21.239 35.7538 18.6049 36.8653C15.9708 37.9769 13.0699 38.2968 10.2569 37.7859C7.44394 37.275 4.8408 35.9554 2.76586 33.9885C2.43784 33.6796 2.17459 33.3085 1.99143 32.8968C1.80827 32.4851 1.70887 32.0411 1.69903 31.5906C1.6892 31.1401 1.76911 30.6922 1.93412 30.2729C2.09913 29.8536 2.34595 29.4714 2.66017 29.1484C3.29923 28.493 4.17021 28.1149 5.08541 28.0955C6.00062 28.0761 6.8868 28.417 7.55306 29.0447C9.03107 30.4394 10.9942 31.2037 13.0262 31.1754C15.0582 31.147 16.9992 30.3284 18.4378 28.893C19.1457 28.1868 19.7073 27.3479 20.0905 26.4244C20.4737 25.5008 20.6709 24.5108 20.6709 23.5109C20.6709 22.511 20.4737 21.5209 20.0905 20.5973C19.7073 19.6738 19.1457 18.8349 18.4378 18.1287C16.9992 16.6933 15.0582 15.8747 13.0262 15.8464C10.9942 15.818 9.03107 16.5823 7.55306 17.977C7.53553 17.9935 7.51784 18.0098 7.5 18.026V21C7.5 22.933 5.933 24.5 4 24.5C2.067 24.5 0.5 22.933 0.5 21V4C0.5 2.067 2.067 0.5 4 0.5ZM46.8914 13.2198C49.6432 10.4993 53.3618 8.98146 57.2313 8.99918C61.1008 8.98146 64.8193 10.4993 67.5711 13.2198C70.3229 15.9402 71.8833 19.6411 71.91 23.5105C71.91 27.4035 70.3634 31.1371 67.6106 33.8899C64.8579 36.6427 61.1243 38.1892 57.2313 38.1892C53.3383 38.1892 49.6047 36.6427 46.8519 33.8899C44.0991 31.1371 42.5526 27.4035 42.5526 23.5105C42.5793 19.6411 44.1396 15.9402 46.8914 13.2198ZM52.9966 29.8407C54.2456 30.6934 55.719 31.1576 57.2313 31.1747C58.2436 31.1805 59.247 30.9869 60.1845 30.6049C61.1219 30.2228 61.9749 29.6599 62.6948 28.9482C63.4146 28.2365 63.9873 27.39 64.38 26.457C64.7727 25.524 64.9778 24.5228 64.9836 23.5105C64.9837 21.9982 64.5364 20.5196 63.698 19.2609C62.8596 18.0022 61.6677 17.0196 60.2721 16.4368C58.8766 15.854 57.3398 15.6971 55.8553 15.9858C54.3707 16.2744 53.0048 16.9958 51.9293 18.059C50.8538 19.1223 50.1169 20.4799 49.8113 21.9611C49.5057 23.4422 49.6451 24.9807 50.2119 26.3828C50.7787 27.7849 51.7475 28.988 52.9966 29.8407ZM80.8194 13.7772C83.9326 10.6989 88.1393 8.98067 92.5174 8.99917C96.8954 8.98067 101.102 10.6989 104.215 13.7772C107.329 16.8556 109.094 21.0427 109.125 25.4207C109.125 27.5814 108.693 29.7203 107.855 31.7118C107.017 33.7033 105.79 35.5073 104.245 37.0178C103.592 37.6592 102.713 38.0186 101.798 38.0186C100.883 38.0186 100.005 37.6592 99.3518 37.0178C99.0306 36.7017 98.7755 36.3249 98.6014 35.9093C98.4272 35.4936 98.3376 35.0475 98.3376 34.5968C98.3376 34.1462 98.4272 33.7 98.6014 33.2844C98.7755 32.8687 99.0306 32.4919 99.3518 32.1758C100.25 31.2924 100.963 30.239 101.45 29.0771C101.937 27.9151 102.188 26.6679 102.188 25.408C102.188 24.1481 101.937 22.9008 101.45 21.7389C100.963 20.5769 100.25 19.5235 99.3518 18.6401C97.526 16.8439 95.0674 15.8373 92.5061 15.8373C89.9449 15.8373 87.4863 16.8439 85.6605 18.6401C84.7622 19.5235 84.0488 20.5769 83.5618 21.7389C83.0748 22.9008 82.824 24.1481 82.824 25.408C82.824 26.6679 83.0748 27.9151 83.5618 29.0771C84.0488 30.239 84.7622 31.2924 85.6605 32.1758C85.9817 32.4919 86.2368 32.8687 86.4109 33.2844C86.585 33.7 86.6747 34.1462 86.6747 34.5968C86.6747 35.0475 86.585 35.4936 86.4109 35.9093C86.2368 36.3249 85.9817 36.7017 85.6605 37.0178C85.0077 37.6592 84.1292 38.0186 83.214 38.0186C82.2989 38.0186 81.4204 37.6592 80.7676 37.0178C79.2267 35.5054 78.0033 33.7006 77.1692 31.7092C76.335 29.7177 75.9069 27.5798 75.9099 25.4207C75.9407 21.0427 77.7062 16.8556 80.8194 13.7772ZM138.059 17.8733C138.373 17.5503 138.62 17.1681 138.785 16.7488C138.95 16.3295 139.03 15.8816 139.02 15.4311C139.01 14.9806 138.911 14.5366 138.728 14.1249C138.545 13.7132 138.281 13.3421 137.953 13.0332C135.878 11.0663 133.275 9.74675 130.462 9.23582C127.649 8.7249 124.748 9.04479 122.114 10.1564C119.48 11.268 117.227 13.123 115.631 15.4948C114.034 17.8665 113.163 20.6521 113.125 23.5109C113.163 26.3696 114.034 29.1552 115.631 31.5269C117.227 33.8987 119.48 35.7538 122.114 36.8653C124.748 37.9769 127.649 38.2968 130.462 37.7859C133.275 37.275 135.878 35.9554 137.953 33.9885C138.281 33.6796 138.545 33.3085 138.728 32.8968C138.911 32.4851 139.01 32.0411 139.02 31.5906C139.03 31.1401 138.95 30.6922 138.785 30.2729C138.62 29.8536 138.373 29.4714 138.059 29.1484C137.42 28.493 136.549 28.1149 135.634 28.0955C134.719 28.0761 133.832 28.417 133.166 29.0447C131.688 30.4394 129.725 31.2037 127.693 31.1754C125.661 31.147 123.72 30.3284 122.281 28.893C121.574 28.1868 121.012 27.3479 120.629 26.4244C120.246 25.5008 120.048 24.5108 120.048 23.5109C120.048 22.511 120.246 21.5209 120.629 20.5973C121.012 19.6738 121.574 18.8349 122.281 18.1287C123.72 16.6933 125.661 15.8747 127.693 15.8464C129.725 15.818 131.688 16.5823 133.166 17.977C133.832 18.6049 134.719 18.9457 135.634 18.9261C136.549 18.9066 137.42 18.5281 138.059 17.8723V17.8733ZM130.939 23.4201C130.95 25.3095 129.409 26.8498 127.498 26.8603C125.587 26.8709 124.029 25.3478 124.019 23.4584C124.008 21.569 125.549 20.0288 127.46 20.0182C129.371 20.0076 130.929 21.5307 130.939 23.4201ZM35.0924 25.8613C37.0034 25.8507 38.5441 24.3105 38.5337 22.4211C38.5232 20.5317 36.9656 19.0086 35.0546 19.0192C33.1435 19.0298 31.6028 20.57 31.6133 22.4594C31.6237 24.3488 33.1814 25.8719 35.0924 25.8613Z" fill="white"/>
</svg>
